# Blender v2.74 (sub 0) OBJ File: 'small_dip.blend'
# www.blender.org
mtllib small_dip.mtl
o Tile_Default_Plane
v -0.500000 0.000000 0.500000
v 0.500000 0.000000 0.500000
v -0.500000 0.000000 -0.500000
v 0.500000 0.000000 -0.500000
v -0.500000 0.000000 0.000000
v 0.000000 0.000000 0.500000
v 0.500000 0.000000 0.000000
v 0.000000 0.000000 -0.500000
v 0.000000 -0.082194 0.000000
vn 0.000000 1.000000 0.000000
vn 0.000000 0.986800 0.162200
vn 0.160100 0.974000 -0.160100
vn -0.162200 0.986800 0.000000
vn -0.160100 0.974000 0.160100
vn 0.162200 0.986800 0.000000
vn 0.000000 0.986800 -0.162200
usemtl None
s off
f 7//1 4//1 8//1
f 9//2 8//2 3//2
f 6//3 9//3 5//3
f 2//4 7//4 9//4
f 9//5 7//5 8//5
f 5//6 9//6 3//6
f 1//1 6//1 5//1
f 6//7 2//7 9//7
