# Blender v2.74 (sub 0) OBJ File: 'mine.blend'
# www.blender.org
mtllib mine_lopo.mtl
o Cylinder_Cylinder.001
v -0.237420 0.000650 -0.042036
v -0.237420 0.588934 -0.042036
v -0.229219 0.000650 -0.041228
v -0.229219 0.588934 -0.041228
v -0.221334 0.000650 -0.038836
v -0.221334 0.588934 -0.038836
v -0.214066 0.000650 -0.034952
v -0.214066 0.588934 -0.034952
v -0.207696 0.000650 -0.029724
v -0.207696 0.588934 -0.029724
v -0.202468 0.000650 -0.023354
v -0.202468 0.588934 -0.023354
v -0.198584 0.000650 -0.016086
v -0.198584 0.588934 -0.016086
v -0.196192 0.000650 -0.008201
v -0.196192 0.588934 -0.008201
v -0.195384 0.000650 -0.000000
v -0.195384 0.588934 -0.000000
v -0.196192 0.000650 0.008201
v -0.196192 0.588934 0.008201
v -0.198584 0.000650 0.016086
v -0.198584 0.588934 0.016086
v -0.202468 0.000650 0.023354
v -0.202468 0.588934 0.023354
v -0.207696 0.000650 0.029724
v -0.207696 0.588934 0.029724
v -0.214066 0.000650 0.034952
v -0.214066 0.588934 0.034952
v -0.221334 0.000650 0.038836
v -0.221334 0.588934 0.038836
v -0.229219 0.000650 0.041228
v -0.229219 0.588934 0.041228
v -0.237420 0.000650 0.042036
v -0.237420 0.588934 0.042036
v -0.245621 0.000650 0.041228
v -0.245621 0.588934 0.041228
v -0.253507 0.000650 0.038836
v -0.253507 0.588934 0.038836
v -0.260774 0.000650 0.034952
v -0.260774 0.588934 0.034952
v -0.267144 0.000650 0.029724
v -0.267144 0.588934 0.029724
v -0.272372 0.000650 0.023354
v -0.272372 0.588934 0.023354
v -0.276256 0.000650 0.016086
v -0.276256 0.588934 0.016086
v -0.278648 0.000650 0.008201
v -0.278648 0.588934 0.008201
v -0.279456 0.000650 -0.000000
v -0.279456 0.588934 -0.000000
v -0.278648 0.000650 -0.008201
v -0.278648 0.588934 -0.008201
v -0.276256 0.000650 -0.016087
v -0.276256 0.588934 -0.016087
v -0.272372 0.000650 -0.023354
v -0.272372 0.588934 -0.023354
v -0.267144 0.000650 -0.029724
v -0.267144 0.588934 -0.029724
v -0.260774 0.000650 -0.034952
v -0.260774 0.588934 -0.034952
v -0.253506 0.000650 -0.038836
v -0.253506 0.588934 -0.038836
v -0.245621 0.000650 -0.041228
v -0.245621 0.588934 -0.041228
vn 0.098000 0.000000 -0.995200
vn 0.290300 0.000000 -0.956900
vn 0.471400 0.000000 -0.881900
vn 0.634400 0.000000 -0.773000
vn 0.773000 0.000000 -0.634400
vn 0.881900 0.000000 -0.471400
vn 0.956900 0.000000 -0.290300
vn 0.995200 0.000000 -0.098000
vn 0.995200 0.000000 0.098000
vn 0.956900 0.000000 0.290300
vn 0.881900 0.000000 0.471400
vn 0.773000 0.000000 0.634400
vn 0.634400 0.000000 0.773000
vn 0.471400 0.000000 0.881900
vn 0.290300 0.000000 0.956900
vn 0.098000 0.000000 0.995200
vn -0.098000 0.000000 0.995200
vn -0.290300 0.000000 0.956900
vn -0.471400 0.000000 0.881900
vn -0.634400 0.000000 0.773000
vn -0.773000 0.000000 0.634400
vn -0.881900 0.000000 0.471400
vn -0.956900 0.000000 0.290300
vn -0.995200 0.000000 0.098000
vn -0.995200 0.000000 -0.098000
vn -0.956900 0.000000 -0.290300
vn -0.881900 0.000000 -0.471400
vn -0.773000 0.000000 -0.634400
vn -0.634400 0.000000 -0.773000
vn -0.471400 0.000000 -0.881900
vn 0.000000 1.000000 0.000000
vn -0.098000 0.000000 -0.995200
vn -0.290300 0.000000 -0.956900
vn 0.000000 -1.000000 -0.000000
usemtl None
s off
f 1//1 2//1 4//1 3//1
f 3//2 4//2 6//2 5//2
f 5//3 6//3 8//3 7//3
f 7//4 8//4 10//4 9//4
f 9//5 10//5 12//5 11//5
f 11//6 12//6 14//6 13//6
f 13//7 14//7 16//7 15//7
f 15//8 16//8 18//8 17//8
f 17//9 18//9 20//9 19//9
f 19//10 20//10 22//10 21//10
f 21//11 22//11 24//11 23//11
f 23//12 24//12 26//12 25//12
f 25//13 26//13 28//13 27//13
f 27//14 28//14 30//14 29//14
f 29//15 30//15 32//15 31//15
f 31//16 32//16 34//16 33//16
f 33//17 34//17 36//17 35//17
f 35//18 36//18 38//18 37//18
f 37//19 38//19 40//19 39//19
f 39//20 40//20 42//20 41//20
f 41//21 42//21 44//21 43//21
f 43//22 44//22 46//22 45//22
f 45//23 46//23 48//23 47//23
f 47//24 48//24 50//24 49//24
f 49//25 50//25 52//25 51//25
f 51//26 52//26 54//26 53//26
f 53//27 54//27 56//27 55//27
f 55//28 56//28 58//28 57//28
f 57//29 58//29 60//29 59//29
f 59//30 60//30 62//30 61//30
f 4//31 2//31 64//31 62//31 60//31 58//31 56//31 54//31 52//31 50//31 48//31 46//31 44//31 42//31 40//31 38//31 36//31 34//31 32//31 30//31 28//31 26//31 24//31 22//31 20//31 18//31 16//31 14//31 12//31 10//31 8//31 6//31
f 63//32 64//32 2//32 1//32
f 61//33 62//33 64//33 63//33
f 1//34 3//34 5//34 7//34 9//34 11//34 13//34 15//34 17//34 19//34 21//34 23//34 25//34 27//34 29//34 31//34 33//34 35//34 37//34 39//34 41//34 43//34 45//34 47//34 49//34 51//34 53//34 55//34 57//34 59//34 61//34 63//34
o Cube
v -0.337300 0.000524 0.099581
v -0.337300 0.200524 0.099581
v -0.337300 0.000524 -0.298847
v -0.337300 0.200524 -0.298847
v -0.137300 0.000524 0.099581
v -0.137300 0.200524 0.099581
v -0.137300 0.000524 -0.298847
v -0.137300 0.200524 -0.298847
vn -1.000000 0.000000 0.000000
vn 0.000000 0.000000 -1.000000
vn 1.000000 0.000000 0.000000
vn 0.000000 0.000000 1.000000
vn 0.000000 -1.000000 0.000000
vn 0.000000 1.000000 0.000000
usemtl None
s off
f 66//35 68//35 67//35 65//35
f 68//36 72//36 71//36 67//36
f 72//37 70//37 69//37 71//37
f 70//38 66//38 65//38 69//38
f 65//39 67//39 71//39 69//39
f 70//40 72//40 68//40 66//40
o Cylinder.001_Cylinder.002
v -0.237420 0.000650 -0.142036
v -0.237420 0.588934 -0.142036
v -0.229219 0.000650 -0.141228
v -0.229219 0.588934 -0.141228
v -0.221334 0.000650 -0.138836
v -0.221334 0.588934 -0.138836
v -0.214066 0.000650 -0.134952
v -0.214066 0.588934 -0.134952
v -0.207696 0.000650 -0.129724
v -0.207696 0.588934 -0.129724
v -0.202468 0.000650 -0.123354
v -0.202468 0.588934 -0.123354
v -0.198584 0.000650 -0.116086
v -0.198584 0.588934 -0.116086
v -0.196192 0.000650 -0.108201
v -0.196192 0.588934 -0.108201
v -0.195384 0.000650 -0.100000
v -0.195384 0.588934 -0.100000
v -0.196192 0.000650 -0.091799
v -0.196192 0.588934 -0.091799
v -0.198584 0.000650 -0.083914
v -0.198584 0.588934 -0.083914
v -0.202468 0.000650 -0.076646
v -0.202468 0.588934 -0.076646
v -0.207696 0.000650 -0.070276
v -0.207696 0.588934 -0.070276
v -0.214066 0.000650 -0.065048
v -0.214066 0.588934 -0.065048
v -0.221334 0.000650 -0.061164
v -0.221334 0.588934 -0.061164
v -0.229219 0.000650 -0.058772
v -0.229219 0.588934 -0.058772
v -0.237420 0.000650 -0.057964
v -0.237420 0.588934 -0.057964
v -0.245621 0.000650 -0.058772
v -0.245621 0.588934 -0.058772
v -0.253507 0.000650 -0.061164
v -0.253507 0.588934 -0.061164
v -0.260774 0.000650 -0.065048
v -0.260774 0.588934 -0.065048
v -0.267144 0.000650 -0.070276
v -0.267144 0.588934 -0.070276
v -0.272372 0.000650 -0.076646
v -0.272372 0.588934 -0.076646
v -0.276256 0.000650 -0.083914
v -0.276256 0.588934 -0.083914
v -0.278648 0.000650 -0.091799
v -0.278648 0.588934 -0.091799
v -0.279456 0.000650 -0.100000
v -0.279456 0.588934 -0.100000
v -0.278648 0.000650 -0.108201
v -0.278648 0.588934 -0.108201
v -0.276256 0.000650 -0.116087
v -0.276256 0.588934 -0.116087
v -0.272372 0.000650 -0.123354
v -0.272372 0.588934 -0.123354
v -0.267144 0.000650 -0.129724
v -0.267144 0.588934 -0.129724
v -0.260774 0.000650 -0.134952
v -0.260774 0.588934 -0.134952
v -0.253506 0.000650 -0.138836
v -0.253506 0.588934 -0.138836
v -0.245621 0.000650 -0.141228
v -0.245621 0.588934 -0.141228
vn 0.098000 0.000000 -0.995200
vn 0.290300 0.000000 -0.956900
vn 0.471400 0.000000 -0.881900
vn 0.634400 0.000000 -0.773000
vn 0.773000 0.000000 -0.634400
vn 0.881900 0.000000 -0.471400
vn 0.956900 0.000000 -0.290300
vn 0.995200 0.000000 -0.098000
vn 0.995200 0.000000 0.098000
vn 0.956900 0.000000 0.290300
vn 0.881900 0.000000 0.471400
vn 0.773000 0.000000 0.634400
vn 0.634400 0.000000 0.773000
vn 0.471400 0.000000 0.881900
vn 0.290300 0.000000 0.956900
vn 0.098000 0.000000 0.995200
vn -0.098000 0.000000 0.995200
vn -0.290300 0.000000 0.956900
vn -0.471400 0.000000 0.881900
vn -0.634400 0.000000 0.773000
vn -0.773000 0.000000 0.634400
vn -0.881900 0.000000 0.471400
vn -0.956900 0.000000 0.290300
vn -0.995200 0.000000 0.098000
vn -0.995200 0.000000 -0.098000
vn -0.956900 0.000000 -0.290300
vn -0.881900 0.000000 -0.471400
vn -0.773000 0.000000 -0.634400
vn -0.634400 0.000000 -0.773000
vn -0.471400 0.000000 -0.881900
vn 0.000000 1.000000 0.000000
vn -0.098000 0.000000 -0.995200
vn -0.290300 0.000000 -0.956900
vn 0.000000 -1.000000 -0.000000
usemtl None
s off
f 73//41 74//41 76//41 75//41
f 75//42 76//42 78//42 77//42
f 77//43 78//43 80//43 79//43
f 79//44 80//44 82//44 81//44
f 81//45 82//45 84//45 83//45
f 83//46 84//46 86//46 85//46
f 85//47 86//47 88//47 87//47
f 87//48 88//48 90//48 89//48
f 89//49 90//49 92//49 91//49
f 91//50 92//50 94//50 93//50
f 93//51 94//51 96//51 95//51
f 95//52 96//52 98//52 97//52
f 97//53 98//53 100//53 99//53
f 99//54 100//54 102//54 101//54
f 101//55 102//55 104//55 103//55
f 103//56 104//56 106//56 105//56
f 105//57 106//57 108//57 107//57
f 107//58 108//58 110//58 109//58
f 109//59 110//59 112//59 111//59
f 111//60 112//60 114//60 113//60
f 113//61 114//61 116//61 115//61
f 115//62 116//62 118//62 117//62
f 117//63 118//63 120//63 119//63
f 119//64 120//64 122//64 121//64
f 121//65 122//65 124//65 123//65
f 123//66 124//66 126//66 125//66
f 125//67 126//67 128//67 127//67
f 127//68 128//68 130//68 129//68
f 129//69 130//69 132//69 131//69
f 131//70 132//70 134//70 133//70
f 76//71 74//71 136//71 134//71 132//71 130//71 128//71 126//71 124//71 122//71 120//71 118//71 116//71 114//71 112//71 110//71 108//71 106//71 104//71 102//71 100//71 98//71 96//71 94//71 92//71 90//71 88//71 86//71 84//71 82//71 80//71 78//71
f 135//72 136//72 74//72 73//72
f 133//73 134//73 136//73 135//73
f 73//74 75//74 77//74 79//74 81//74 83//74 85//74 87//74 89//74 91//74 93//74 95//74 97//74 99//74 101//74 103//74 105//74 107//74 109//74 111//74 113//74 115//74 117//74 119//74 121//74 123//74 125//74 127//74 129//74 131//74 133//74 135//74
o Cylinder.002_Cylinder.003
v -0.237420 0.000650 -0.242036
v -0.237420 0.588934 -0.242036
v -0.229219 0.000650 -0.241228
v -0.229219 0.588934 -0.241228
v -0.221334 0.000650 -0.238836
v -0.221334 0.588934 -0.238836
v -0.214066 0.000650 -0.234952
v -0.214066 0.588934 -0.234952
v -0.207696 0.000650 -0.229724
v -0.207696 0.588934 -0.229724
v -0.202468 0.000650 -0.223354
v -0.202468 0.588934 -0.223354
v -0.198584 0.000650 -0.216086
v -0.198584 0.588934 -0.216086
v -0.196192 0.000650 -0.208201
v -0.196192 0.588934 -0.208201
v -0.195384 0.000650 -0.200000
v -0.195384 0.588934 -0.200000
v -0.196192 0.000650 -0.191799
v -0.196192 0.588934 -0.191799
v -0.198584 0.000650 -0.183914
v -0.198584 0.588934 -0.183914
v -0.202468 0.000650 -0.176646
v -0.202468 0.588934 -0.176646
v -0.207696 0.000650 -0.170276
v -0.207696 0.588934 -0.170276
v -0.214066 0.000650 -0.165048
v -0.214066 0.588934 -0.165048
v -0.221334 0.000650 -0.161164
v -0.221334 0.588934 -0.161164
v -0.229219 0.000650 -0.158772
v -0.229219 0.588934 -0.158772
v -0.237420 0.000650 -0.157964
v -0.237420 0.588934 -0.157964
v -0.245621 0.000650 -0.158772
v -0.245621 0.588934 -0.158772
v -0.253507 0.000650 -0.161164
v -0.253507 0.588934 -0.161164
v -0.260774 0.000650 -0.165048
v -0.260774 0.588934 -0.165048
v -0.267144 0.000650 -0.170276
v -0.267144 0.588934 -0.170276
v -0.272372 0.000650 -0.176646
v -0.272372 0.588934 -0.176646
v -0.276256 0.000650 -0.183914
v -0.276256 0.588934 -0.183914
v -0.278648 0.000650 -0.191799
v -0.278648 0.588934 -0.191799
v -0.279456 0.000650 -0.200000
v -0.279456 0.588934 -0.200000
v -0.278648 0.000650 -0.208201
v -0.278648 0.588934 -0.208201
v -0.276256 0.000650 -0.216087
v -0.276256 0.588934 -0.216087
v -0.272372 0.000650 -0.223354
v -0.272372 0.588934 -0.223354
v -0.267144 0.000650 -0.229724
v -0.267144 0.588934 -0.229724
v -0.260774 0.000650 -0.234952
v -0.260774 0.588934 -0.234952
v -0.253506 0.000650 -0.238836
v -0.253506 0.588934 -0.238836
v -0.245621 0.000650 -0.241228
v -0.245621 0.588934 -0.241228
vn 0.098000 0.000000 -0.995200
vn 0.290300 0.000000 -0.956900
vn 0.471400 0.000000 -0.881900
vn 0.634400 0.000000 -0.773000
vn 0.773000 0.000000 -0.634400
vn 0.881900 0.000000 -0.471400
vn 0.956900 0.000000 -0.290300
vn 0.995200 0.000000 -0.098000
vn 0.995200 0.000000 0.098000
vn 0.956900 0.000000 0.290300
vn 0.881900 0.000000 0.471400
vn 0.773000 0.000000 0.634400
vn 0.634400 0.000000 0.773000
vn 0.471400 0.000000 0.881900
vn 0.290300 0.000000 0.956900
vn 0.098000 0.000000 0.995200
vn -0.098000 0.000000 0.995200
vn -0.290300 0.000000 0.956900
vn -0.471400 0.000000 0.881900
vn -0.634400 0.000000 0.773000
vn -0.773000 0.000000 0.634400
vn -0.881900 0.000000 0.471400
vn -0.956900 0.000000 0.290300
vn -0.995200 0.000000 0.098000
vn -0.995200 0.000000 -0.098000
vn -0.956900 0.000000 -0.290300
vn -0.881900 0.000000 -0.471400
vn -0.773000 0.000000 -0.634400
vn -0.634400 0.000000 -0.773000
vn -0.471400 0.000000 -0.881900
vn 0.000000 1.000000 0.000000
vn -0.098000 0.000000 -0.995200
vn -0.290300 0.000000 -0.956900
vn 0.000000 -1.000000 -0.000000
usemtl None
s off
f 137//75 138//75 140//75 139//75
f 139//76 140//76 142//76 141//76
f 141//77 142//77 144//77 143//77
f 143//78 144//78 146//78 145//78
f 145//79 146//79 148//79 147//79
f 147//80 148//80 150//80 149//80
f 149//81 150//81 152//81 151//81
f 151//82 152//82 154//82 153//82
f 153//83 154//83 156//83 155//83
f 155//84 156//84 158//84 157//84
f 157//85 158//85 160//85 159//85
f 159//86 160//86 162//86 161//86
f 161//87 162//87 164//87 163//87
f 163//88 164//88 166//88 165//88
f 165//89 166//89 168//89 167//89
f 167//90 168//90 170//90 169//90
f 169//91 170//91 172//91 171//91
f 171//92 172//92 174//92 173//92
f 173//93 174//93 176//93 175//93
f 175//94 176//94 178//94 177//94
f 177//95 178//95 180//95 179//95
f 179//96 180//96 182//96 181//96
f 181//97 182//97 184//97 183//97
f 183//98 184//98 186//98 185//98
f 185//99 186//99 188//99 187//99
f 187//100 188//100 190//100 189//100
f 189//101 190//101 192//101 191//101
f 191//102 192//102 194//102 193//102
f 193//103 194//103 196//103 195//103
f 195//104 196//104 198//104 197//104
f 140//105 138//105 200//105 198//105 196//105 194//105 192//105 190//105 188//105 186//105 184//105 182//105 180//105 178//105 176//105 174//105 172//105 170//105 168//105 166//105 164//105 162//105 160//105 158//105 156//105 154//105 152//105 150//105 148//105 146//105 144//105 142//105
f 199//106 200//106 138//106 137//106
f 197//107 198//107 200//107 199//107
f 137//108 139//108 141//108 143//108 145//108 147//108 149//108 151//108 153//108 155//108 157//108 159//108 161//108 163//108 165//108 167//108 169//108 171//108 173//108 175//108 177//108 179//108 181//108 183//108 185//108 187//108 189//108 191//108 193//108 195//108 197//108 199//108
o Cube.001
v -0.112318 -0.000725 0.099581
v -0.112318 0.312270 0.099581
v -0.112318 -0.000725 -0.298847
v -0.112318 0.312270 -0.298847
v 0.231721 -0.000725 0.099581
v 0.231721 0.312270 0.099581
v 0.231721 -0.000725 -0.298847
v 0.231721 0.312270 -0.298847
vn -1.000000 0.000000 0.000000
vn 0.000000 0.000000 -1.000000
vn 1.000000 0.000000 0.000000
vn 0.000000 0.000000 1.000000
vn 0.000000 -1.000000 0.000000
vn 0.000000 1.000000 0.000000
usemtl None
s off
f 202//109 204//109 203//109 201//109
f 204//110 208//110 207//110 203//110
f 208//111 206//111 205//111 207//111
f 206//112 202//112 201//112 205//112
f 201//113 203//113 207//113 205//113
f 206//114 208//114 204//114 202//114
o Cube.002
v -0.339812 0.002153 0.395141
v -0.339812 0.309392 0.395141
v -0.339812 0.002153 0.129496
v -0.339812 0.309392 0.129496
v 0.214646 0.002153 0.395141
v 0.214646 0.309392 0.395141
v 0.214646 0.002153 0.129496
v 0.214646 0.309392 0.129496
vn -1.000000 0.000000 0.000000
vn 0.000000 0.000000 -1.000000
vn 1.000000 0.000000 0.000000
vn 0.000000 0.000000 1.000000
vn 0.000000 -1.000000 0.000000
vn 0.000000 1.000000 0.000000
usemtl None
s off
f 210//115 212//115 211//115 209//115
f 212//116 216//116 215//116 211//116
f 216//117 214//117 213//117 215//117
f 214//118 210//118 209//118 213//118
f 209//119 211//119 215//119 213//119
f 214//120 216//120 212//120 210//120
